<svg xmlns="http://www.w3.org/2000/svg" viewBox="0 0 600 600" width="600" height="600"><rect width="600" height="600" fill="#E8E4D8"/><defs><filter id="shadow1" x="-20%" y="-20%" width="140%" height="140%"><feDropShadow dx="0" dy="9" stdDeviation="11" flood-color="#2b2118" flood-opacity="0.28"/></filter></defs>
<rect x="110" y="54" width="380" height="480" fill="#8B6B4A" filter="url(#shadow1)"/>
<rect x="119" y="63" width="362" height="462" fill="#FBF8F2"/>
<svg x="151" y="95" width="298" height="398" viewBox="0 0 600 600" preserveAspectRatio="xMidYMid slice"><rect width="600" height="600" fill="#FBF8F2"/><path d="M210,600 C150,420 430,280 380,50" fill="none" stroke="#3B3631" stroke-width="3.2" stroke-linecap="round"/><g transform="translate(201.9,536.7) rotate(-137.7)"><path d="M0,0 C37.8,-44.9 97.1,-38.4 134.8,-0.8 C97.1,32.1 40.5,40.6 0,0Z" fill="#B9A27E" fill-opacity="0.3" stroke="#3B3631" stroke-width="1.7" stroke-linejoin="round"/><path d="M0,0 Q67.4,-1.3 130.8,-0.8" fill="none" stroke="#3B3631" stroke-width="1.1"/><path d="M25.9,-0.2 L42.1,-22.3 M25.9,-0.2 L42.1,21.9" stroke="#3B3631" stroke-width="0.8" stroke-linecap="round" opacity="0.8"/><path d="M51.9,-0.4 L68,-18.1 M51.9,-0.4 L68,17.3" stroke="#3B3631" stroke-width="0.8" stroke-linecap="round" opacity="0.8"/><path d="M77.8,-0.6 L94,-13.9 M77.8,-0.6 L94,12.6" stroke="#3B3631" stroke-width="0.8" stroke-linecap="round" opacity="0.8"/><path d="M103.7,-0.8 L119.9,-9.6 M103.7,-0.8 L119.9,8" stroke="#3B3631" stroke-width="0.8" stroke-linecap="round" opacity="0.8"/></g><g transform="translate(209.1,496.8) rotate(-13.2)"><path d="M0,0 C38.7,-45.3 99.5,-38.7 138.1,-0.4 C99.5,34.4 41.4,43.3 0,0Z" fill="#B9A27E" fill-opacity="0.4" stroke="#3B3631" stroke-width="1.7" stroke-linejoin="round"/><path d="M0,0 Q69.1,-0.6 134,-0.4" fill="none" stroke="#3B3631" stroke-width="1.1"/><path d="M26.6,-0.1 L43.1,-23 M26.6,-0.1 L43.1,22.8" stroke="#3B3631" stroke-width="0.8" stroke-linecap="round" opacity="0.8"/><path d="M53.1,-0.2 L69.7,-18.5 M53.1,-0.2 L69.7,18.1" stroke="#3B3631" stroke-width="0.8" stroke-linecap="round" opacity="0.8"/><path d="M79.7,-0.3 L96.3,-14 M79.7,-0.3 L96.3,13.4" stroke="#3B3631" stroke-width="0.8" stroke-linecap="round" opacity="0.8"/><path d="M106.3,-0.4 L122.8,-9.6 M106.3,-0.4 L122.8,8.8" stroke="#3B3631" stroke-width="0.8" stroke-linecap="round" opacity="0.8"/></g><g transform="translate(223.9,457.4) rotate(-112.2)"><path d="M0,0 C33.7,-43.5 86.7,-37.4 120.5,-1.2 C86.7,29.6 36.1,37.7 0,0Z" fill="#B9A27E" fill-opacity="0.2" stroke="#3B3631" stroke-width="1.7" stroke-linejoin="round"/><path d="M0,0 Q60.2,-1.7 116.9,-1.2" fill="none" stroke="#3B3631" stroke-width="1.1"/><path d="M23.2,-0.3 L37.6,-21.2 M23.2,-0.3 L37.6,20.7" stroke="#3B3631" stroke-width="0.8" stroke-linecap="round" opacity="0.8"/><path d="M46.3,-0.6 L60.8,-17.3 M46.3,-0.6 L60.8,16.2" stroke="#3B3631" stroke-width="0.8" stroke-linecap="round" opacity="0.8"/><path d="M69.5,-0.8 L84,-13.4 M69.5,-0.8 L84,11.7" stroke="#3B3631" stroke-width="0.8" stroke-linecap="round" opacity="0.8"/><path d="M92.7,-1.1 L107.1,-9.5 M92.7,-1.1 L107.1,7.3" stroke="#3B3631" stroke-width="0.8" stroke-linecap="round" opacity="0.8"/></g><g transform="translate(244.4,418.1) rotate(1.3)"><path d="M0,0 C31.2,-31.4 80.3,-25.8 111.5,2.3 C80.3,35.6 33.5,43 0,0Z" fill="#B9A27E" fill-opacity="0.2" stroke="#3B3631" stroke-width="1.7" stroke-linejoin="round"/><path d="M0,0 Q55.8,3.5 108.2,2.3" fill="none" stroke="#3B3631" stroke-width="1.1"/><path d="M21.5,0.6 L34.8,-18.6 M21.5,0.6 L34.8,19.8" stroke="#3B3631" stroke-width="0.8" stroke-linecap="round" opacity="0.8"/><path d="M42.9,1.1 L56.3,-14.2 M42.9,1.1 L56.3,16.5" stroke="#3B3631" stroke-width="0.8" stroke-linecap="round" opacity="0.8"/><path d="M64.4,1.7 L77.7,-9.8 M64.4,1.7 L77.7,13.2" stroke="#3B3631" stroke-width="0.8" stroke-linecap="round" opacity="0.8"/><path d="M85.8,2.2 L99.2,-5.4 M85.8,2.2 L99.2,9.9" stroke="#3B3631" stroke-width="0.8" stroke-linecap="round" opacity="0.8"/></g><g transform="translate(268.6,378.6) rotate(-110.1)"><path d="M0,0 C29.7,-35.9 76.4,-30.6 106.1,-0.2 C76.4,27.6 31.8,34.7 0,0Z" fill="#B9A27E" fill-opacity="0.2" stroke="#3B3631" stroke-width="1.7" stroke-linejoin="round"/><path d="M0,0 Q53,-0.4 102.9,-0.2" fill="none" stroke="#3B3631" stroke-width="1.1"/><path d="M20.4,-0.1 L33.1,-18.3 M20.4,-0.1 L33.1,18.2" stroke="#3B3631" stroke-width="0.8" stroke-linecap="round" opacity="0.8"/><path d="M40.8,-0.1 L53.5,-14.7 M40.8,-0.1 L53.5,14.5" stroke="#3B3631" stroke-width="0.8" stroke-linecap="round" opacity="0.8"/><path d="M61.2,-0.2 L73.9,-11.1 M61.2,-0.2 L73.9,10.8" stroke="#3B3631" stroke-width="0.8" stroke-linecap="round" opacity="0.8"/><path d="M81.6,-0.2 L94.3,-7.5 M81.6,-0.2 L94.3,7.1" stroke="#3B3631" stroke-width="0.8" stroke-linecap="round" opacity="0.8"/></g><g transform="translate(294.6,338.6) rotate(-0.6)"><path d="M0,0 C31.6,-37.2 81.1,-31.2 112.7,1.1 C81.1,34.6 33.8,42.6 0,0Z" fill="#B9A27E" fill-opacity="0.4" stroke="#3B3631" stroke-width="1.7" stroke-linejoin="round"/><path d="M0,0 Q56.3,1.6 109.3,1.1" fill="none" stroke="#3B3631" stroke-width="1.1"/><path d="M21.7,0.3 L35.2,-20.3 M21.7,0.3 L35.2,20.9" stroke="#3B3631" stroke-width="0.8" stroke-linecap="round" opacity="0.8"/><path d="M43.3,0.5 L56.9,-16 M43.3,0.5 L56.9,17" stroke="#3B3631" stroke-width="0.8" stroke-linecap="round" opacity="0.8"/><path d="M65,0.8 L78.5,-11.6 M65,0.8 L78.5,13.1" stroke="#3B3631" stroke-width="0.8" stroke-linecap="round" opacity="0.8"/><path d="M86.7,1 L100.2,-7.2 M86.7,1 L100.2,9.3" stroke="#3B3631" stroke-width="0.8" stroke-linecap="round" opacity="0.8"/></g><g transform="translate(320.6,297.5) rotate(-105.3)"><path d="M0,0 C27,-34.5 69.3,-29.8 96.3,-1.4 C69.3,21.5 28.9,27.7 0,0Z" fill="#B9A27E" fill-opacity="0.4" stroke="#3B3631" stroke-width="1.7" stroke-linejoin="round"/><path d="M0,0 Q48.2,-2 93.4,-1.4" fill="none" stroke="#3B3631" stroke-width="1.1"/><path d="M18.5,-0.3 L30.1,-16.4 M18.5,-0.3 L30.1,15.7" stroke="#3B3631" stroke-width="0.8" stroke-linecap="round" opacity="0.8"/><path d="M37,-0.7 L48.6,-13.5 M37,-0.7 L48.6,12.2" stroke="#3B3631" stroke-width="0.8" stroke-linecap="round" opacity="0.8"/><path d="M55.6,-1 L67.1,-10.6 M55.6,-1 L67.1,8.7" stroke="#3B3631" stroke-width="0.8" stroke-linecap="round" opacity="0.8"/><path d="M74.1,-1.3 L85.6,-7.7 M74.1,-1.3 L85.6,5.1" stroke="#3B3631" stroke-width="0.8" stroke-linecap="round" opacity="0.8"/></g><g transform="translate(344.6,255.2) rotate(-11.1)"><path d="M0,0 C25.6,-31.1 65.9,-26.2 91.5,0.6 C65.9,27.5 27.5,34 0,0Z" fill="#B9A27E" fill-opacity="0.4" stroke="#3B3631" stroke-width="1.7" stroke-linejoin="round"/><path d="M0,0 Q45.8,0.9 88.8,0.6" fill="none" stroke="#3B3631" stroke-width="1.1"/><path d="M17.6,0.1 L28.6,-16.7 M17.6,0.1 L28.6,17" stroke="#3B3631" stroke-width="0.8" stroke-linecap="round" opacity="0.8"/><path d="M35.2,0.3 L46.2,-13.2 M35.2,0.3 L46.2,13.7" stroke="#3B3631" stroke-width="0.8" stroke-linecap="round" opacity="0.8"/><path d="M52.8,0.4 L63.8,-9.7 M52.8,0.4 L63.8,10.5" stroke="#3B3631" stroke-width="0.8" stroke-linecap="round" opacity="0.8"/><path d="M70.4,0.6 L81.4,-6.2 M70.4,0.6 L81.4,7.3" stroke="#3B3631" stroke-width="0.8" stroke-linecap="round" opacity="0.8"/></g><g transform="translate(364.8,211.1) rotate(-118)"><path d="M0,0 C26.9,-28.8 69.1,-23.7 96,2.1 C69.1,32.6 28.8,39.4 0,0Z" fill="#B9A27E" fill-opacity="0.4" stroke="#3B3631" stroke-width="1.7" stroke-linejoin="round"/><path d="M0,0 Q48,3.2 93.1,2.1" fill="none" stroke="#3B3631" stroke-width="1.1"/><path d="M18.5,0.5 L30,-17.1 M18.5,0.5 L30,18.1" stroke="#3B3631" stroke-width="0.8" stroke-linecap="round" opacity="0.8"/><path d="M36.9,1 L48.5,-13.1 M36.9,1 L48.5,15.1" stroke="#3B3631" stroke-width="0.8" stroke-linecap="round" opacity="0.8"/><path d="M55.4,1.5 L66.9,-9 M55.4,1.5 L66.9,12.1" stroke="#3B3631" stroke-width="0.8" stroke-linecap="round" opacity="0.8"/><path d="M73.9,2 L85.4,-5 M73.9,2 L85.4,9.1" stroke="#3B3631" stroke-width="0.8" stroke-linecap="round" opacity="0.8"/></g><g transform="translate(379.1,165) rotate(-31.6)"><path d="M0,0 C22.8,-31.9 58.6,-28.2 81.4,-2.9 C58.6,12.6 24.4,17.5 0,0Z" fill="#B9A27E" fill-opacity="0.4" stroke="#3B3631" stroke-width="1.7" stroke-linejoin="round"/><path d="M0,0 Q40.7,-4.3 78.9,-2.9" fill="none" stroke="#3B3631" stroke-width="1.1"/><path d="M15.6,-0.7 L25.4,-13.5 M15.6,-0.7 L25.4,12.1" stroke="#3B3631" stroke-width="0.8" stroke-linecap="round" opacity="0.8"/><path d="M31.3,-1.4 L41.1,-11.6 M31.3,-1.4 L41.1,8.8" stroke="#3B3631" stroke-width="0.8" stroke-linecap="round" opacity="0.8"/><path d="M46.9,-2.1 L56.7,-9.7 M46.9,-2.1 L56.7,5.6" stroke="#3B3631" stroke-width="0.8" stroke-linecap="round" opacity="0.8"/><path d="M62.6,-2.8 L72.4,-7.9 M62.6,-2.8 L72.4,2.3" stroke="#3B3631" stroke-width="0.8" stroke-linecap="round" opacity="0.8"/></g><g transform="translate(385.8,116.4) rotate(-138.3)"><path d="M0,0 C23,-31.2 59.2,-27.3 82.3,-2.1 C59.2,15.7 24.7,20.9 0,0Z" fill="#B9A27E" fill-opacity="0.4" stroke="#3B3631" stroke-width="1.7" stroke-linejoin="round"/><path d="M0,0 Q41.1,-3.1 79.8,-2.1" fill="none" stroke="#3B3631" stroke-width="1.1"/><path d="M15.8,-0.5 L25.7,-14 M15.8,-0.5 L25.7,13" stroke="#3B3631" stroke-width="0.8" stroke-linecap="round" opacity="0.8"/><path d="M31.6,-1 L41.5,-11.8 M31.6,-1 L41.5,9.8" stroke="#3B3631" stroke-width="0.8" stroke-linecap="round" opacity="0.8"/><path d="M47.5,-1.5 L57.3,-9.6 M47.5,-1.5 L57.3,6.6" stroke="#3B3631" stroke-width="0.8" stroke-linecap="round" opacity="0.8"/><path d="M63.3,-2 L73.2,-7.4 M63.3,-2 L73.2,3.4" stroke="#3B3631" stroke-width="0.8" stroke-linecap="round" opacity="0.8"/></g><path d="M470,548 c8,-14 16,-14 12,0 c-3,10 10,-12 16,-6 c5,5 -4,12 6,6 c8,-5 12,-2 22,-4" fill="none" stroke="#3B3631" stroke-width="1.6" stroke-linecap="round"/></svg></svg>
